<?xml version="1.0" encoding="UTF-8"?>
<svg version="1.1" xmlns="http://www.w3.org/2000/svg" width="350" height="391">
<path d="M0 0 C6.44216982 3.14100269 12.6056886 6.78751795 18.77148438 10.43310547 C20.89874962 11.68238069 23.02636595 12.93105822 25.15429688 14.17919922 C26.24516602 14.81970215 27.33603516 15.46020508 28.45996094 16.12011719 C33.84149317 19.2695276 39.24343461 22.38329854 44.64648438 25.49560547 C46.26490234 26.42832275 46.26490234 26.42832275 47.91601562 27.37988281 C50.10699374 28.64243069 52.29807456 29.90480035 54.48925781 31.16699219 C59.9180838 34.29490695 65.34467719 37.42668995 70.77148438 40.55810547 C72.9381402 41.80812426 75.10480687 43.05812425 77.27148438 44.30810547 C81.60481771 46.80810547 85.93815104 49.30810547 90.27148438 51.80810547 C91.34503174 52.42741943 92.4185791 53.0467334 93.5246582 53.68481445 C95.6808865 54.92887338 97.83697486 56.17317489 99.99291992 57.41772461 C105.56813955 60.6356734 111.14608827 63.84877151 116.72851562 67.05419922 C155.53631121 89.35258596 155.53631121 89.35258596 158.77148438 99.05810547 C158.87733569 101.4705686 158.92800716 103.85482917 158.93211365 106.26773071 C158.93974538 107.37686028 158.93974538 107.37686028 158.94753128 108.50839651 C158.96326326 110.99322601 158.97178284 113.47802641 158.98022461 115.96289062 C158.98976257 117.741813 158.9996537 119.52073351 159.00987244 121.2996521 C159.04126749 127.14880164 159.06152693 132.99796543 159.08007812 138.84716797 C159.08337545 139.84248142 159.08667277 140.83779487 159.09007001 141.86326933 C159.12085377 151.25141652 159.14755982 160.63956693 159.16448879 170.02775002 C159.18639025 182.03255543 159.2283489 194.03691329 159.29792637 206.04153979 C159.34519509 214.4841314 159.36942629 222.9266024 159.37668568 231.36932218 C159.38163802 236.41062189 159.39667908 241.45141724 159.43642998 246.49257278 C159.47335987 251.23859118 159.48168522 255.98381849 159.46842384 260.72995377 C159.46847769 262.46777006 159.4787319 264.20562198 159.50017548 265.94330597 C159.6850578 281.77733415 159.6850578 281.77733415 154.40814304 288.40845299 C148.41759816 294.4465582 141.05969614 298.35766069 133.68988037 302.49002075 C131.84591658 303.52395961 130.00578016 304.56443688 128.16650391 305.60668945 C126.25273033 306.69110586 124.33876821 307.77516855 122.42367554 308.85725403 C116.14252153 312.40684292 109.89217763 316.00902356 103.64648438 319.62060547 C101.49805781 320.86150982 99.34962031 322.10239524 97.20117188 323.34326172 C96.14124023 323.95572754 95.08130859 324.56819336 93.98925781 325.19921875 C88.58477792 328.32135152 83.17801025 331.43951751 77.77148438 334.55810547 C75.60480687 335.80808668 73.4381402 337.05808668 71.27148438 338.30810547 C58.27148437 345.80810547 58.27148437 345.80810547 55.01757812 347.68530273 C52.86386718 348.92786566 50.71022071 350.17054036 48.55664062 351.41333008 C43.53464176 354.3112517 38.5120563 357.20813896 33.48706055 360.1008606 C31.72102916 361.11757745 29.95521006 362.13466205 28.18945312 363.15185547 C25.98414283 364.4221142 23.77844221 365.69169565 21.57226562 366.96044922 C16.00944704 370.16565839 10.48619873 373.41756667 5.02539062 376.79418945 C0.3832005 379.39737601 -3.46287865 380.41262733 -8.79101562 380.55810547 C-10.46357422 380.63544922 -10.46357422 380.63544922 -12.16992188 380.71435547 C-21.72253734 379.93153724 -31.29216772 372.40014781 -39.35351562 367.62060547 C-41.45991964 366.38170034 -43.56670388 365.14344149 -45.67382812 363.90576172 C-46.75180664 363.2717041 -47.82978516 362.63764648 -48.94042969 361.984375 C-54.35315902 358.81341907 -59.79118624 355.6866273 -65.22851562 352.55810547 C-73.57674989 347.75002375 -81.91095038 342.91904694 -90.22851562 338.05810547 C-98.50628684 333.22134091 -106.79796624 328.40951949 -115.10351562 323.62060547 C-116.17432373 323.00306396 -117.24513184 322.38552246 -118.34838867 321.74926758 C-123.37870607 318.84955281 -128.41067887 315.9527636 -133.44590759 313.06158447 C-171.71477841 291.08557989 -171.71477841 291.08557989 -177.22851562 280.05810547 C-177.3302995 277.69133274 -177.37191161 275.35372854 -177.36895752 272.98651123 C-177.37192864 272.2499128 -177.37489976 271.51331437 -177.37796092 270.75439477 C-177.38666864 268.27326355 -177.38815792 265.79218047 -177.38964844 263.31103516 C-177.3942752 261.53724565 -177.39929967 259.76345714 -177.4046936 257.9896698 C-177.41783455 253.16102735 -177.42426603 248.33239881 -177.42870426 243.50374126 C-177.43163267 240.48817189 -177.43573707 237.47260634 -177.44020844 234.45703888 C-177.45388874 225.02558845 -177.4635524 215.59414673 -177.46741033 206.16268706 C-177.47189049 195.26917477 -177.48943425 184.37578799 -177.51841092 173.48231387 C-177.54001987 165.06696017 -177.55011421 156.6516418 -177.55145144 148.23626065 C-177.55250017 143.20806385 -177.55842221 138.17998495 -177.57627106 133.15181732 C-177.59273778 128.42075748 -177.59491403 123.68990433 -177.58613205 118.95882607 C-177.58536089 117.22300221 -177.58971484 115.48716732 -177.5995903 113.75137138 C-177.61229023 111.37987929 -177.60644397 109.00912134 -177.5960083 106.63763428 C-177.60406471 105.95221392 -177.61212111 105.26679357 -177.62042165 104.5606029 C-177.55055172 97.76209252 -174.71805708 92.993867 -170.22851562 88.05810547 C-167.85571289 86.28466797 -167.85571289 86.28466797 -165.23242188 84.68310547 C-164.25934082 84.08626953 -163.28625977 83.48943359 -162.28369141 82.87451172 C-157.26831604 79.89269993 -152.23150262 76.95400542 -147.16601562 74.05810547 C-145.44962882 73.07238935 -143.73324434 72.08666917 -142.01699829 71.10070801 C-140.25183987 70.08704723 -138.4860723 69.07445415 -136.72021484 68.06201172 C-131.21656483 64.90517809 -125.72317361 61.73055428 -120.22851562 58.55810547 C-118.06189508 57.30802554 -115.8952283 56.05802571 -113.72851562 54.80810547 C-112.65601562 54.18935547 -111.58351563 53.57060547 -110.47851562 52.93310547 C-98.56184896 46.05810547 -86.64518229 39.18310547 -74.72851562 32.30810547 C-73.65504883 31.68871094 -72.58158203 31.06931641 -71.47558594 30.43115234 C-69.31898857 29.18713618 -67.16208969 27.94364254 -65.00488281 26.70068359 C-59.43152484 23.48846094 -53.86427104 20.26620993 -48.30664062 17.02685547 C-42.87551245 13.86406054 -37.4300631 10.72792916 -31.96728516 7.62011719 C-30.28943441 6.66318288 -28.61504582 5.70010586 -26.94677734 4.7265625 C-18.53847632 -0.16103144 -9.62732475 -4.06904238 0 0 Z M-50.22851562 136.05810547 C-47.6811375 139.19247288 -47.6811375 139.19247288 -45.16992188 139.38623047 C-43.99236328 139.34755859 -43.99236328 139.34755859 -42.79101562 139.30810547 C-41.91703125 139.27974609 -41.04304687 139.25138672 -40.14257812 139.22216797 C-39.1809375 139.16802734 -38.21929687 139.11388672 -37.22851562 139.05810547 C-36.143125 139.00396484 -35.05773437 138.94982422 -33.93945312 138.89404297 C-29.56541126 138.63462316 -29.56541126 138.63462316 -25.22851562 138.05810547 C-24.89851563 137.39810547 -24.56851563 136.73810547 -24.22851562 136.05810547 C-32.80851562 136.05810547 -41.38851562 136.05810547 -50.22851562 136.05810547 Z M4.77148438 136.05810547 C8.12003782 139.40665892 12.64782024 138.6617665 17.20898438 138.87060547 C18.17642578 138.93441406 19.14386719 138.99822266 20.140625 139.06396484 C21.06939453 139.10972656 21.99816406 139.15548828 22.95507812 139.20263672 C23.80642334 139.24751221 24.65776855 139.2923877 25.53491211 139.33862305 C28.20744653 139.23575515 28.20744653 139.23575515 30.77148438 136.05810547 C22.19148438 136.05810547 13.61148438 136.05810547 4.77148438 136.05810547 Z M-34.54101562 140.55810547 C-36.42240234 140.97576172 -36.42240234 140.97576172 -38.34179688 141.40185547 C-39.29441406 141.61841797 -40.24703125 141.83498047 -41.22851562 142.05810547 C-40.2770147 143.80892655 -40.2770147 143.80892655 -38.22851562 145.05810547 C-35.36014626 144.78338008 -32.82744148 144.38076455 -30.04101562 143.74560547 C-29.29142578 143.58898437 -28.54183594 143.43236328 -27.76953125 143.27099609 C-25.91922659 142.88207855 -24.07337491 142.47208425 -22.22851562 142.05810547 C-22.22851562 141.06810547 -22.22851562 140.07810547 -22.22851562 139.05810547 C-26.53273288 138.86058881 -30.34723501 139.6174444 -34.54101562 140.55810547 Z M3.77148438 139.05810547 C3.77148438 140.04810547 3.77148438 141.03810547 3.77148438 142.05810547 C6.37252049 142.6417672 8.97486144 143.20044909 11.58398438 143.74560547 C12.32197266 143.91382813 13.05996094 144.08205078 13.8203125 144.25537109 C16.2353913 144.78653583 16.2353913 144.78653583 19.77148438 145.05810547 C21.81998345 143.80892655 21.81998345 143.80892655 22.77148438 142.05810547 C20.54377095 141.55166994 18.31424361 141.05320927 16.08398438 140.55810547 C14.84261719 140.27966797 13.60125 140.00123047 12.32226562 139.71435547 C9.3475022 139.16456421 6.77779835 138.92014842 3.77148438 139.05810547 Z M-20.22851562 143.05810547 C-24.84851563 144.37810547 -29.46851563 145.69810547 -34.22851562 147.05810547 C-33.89851562 147.71810547 -33.56851563 148.37810547 -33.22851562 149.05810547 C-27.77372378 148.48989798 -23.31792307 147.11172602 -18.22851562 145.05810547 C-18.88851562 144.39810547 -19.54851562 143.73810547 -20.22851562 143.05810547 Z M-1.22851562 144.05810547 C1.0461621 146.33278319 2.5379885 146.80942982 5.58398438 147.74560547 C6.43605469 148.01759766 7.288125 148.28958984 8.16601562 148.56982422 C11.02931913 149.10642532 12.97828119 148.80529986 15.77148438 148.05810547 C10.36423927 145.03004821 4.94914821 143.75675601 -1.22851562 144.05810547 Z M-22.97851562 149.05810547 C-23.96335938 149.42935547 -24.94820312 149.80060547 -25.96289062 150.18310547 C-26.71054688 150.47185547 -27.45820313 150.76060547 -28.22851562 151.05810547 C-27.56851563 151.71810547 -26.90851563 152.37810547 -26.22851562 153.05810547 C-21.10453916 152.80610663 -17.37982297 152.30131433 -13.22851562 149.05810547 C-13.22851562 148.39810547 -13.22851562 147.73810547 -13.22851562 147.05810547 C-17.18324716 147.05810547 -19.34194353 147.67274467 -22.97851562 149.05810547 Z M-5.22851562 147.05810547 C-4.49959782 150.36689545 -4.49959782 150.36689545 -1.10351562 151.80810547 C2.73731412 153.34284696 5.73780075 152.96362628 9.77148438 152.05810547 C7.36071781 150.45092776 5.49049192 149.44268031 2.83398438 148.43310547 C2.16496094 148.17271484 1.4959375 147.91232422 0.80664062 147.64404297 C-1.51618819 146.87365918 -1.51618819 146.87365918 -5.22851562 147.05810547 Z M-116.22851562 175.05810547 C-116.22851562 188.58810547 -116.22851562 202.11810547 -116.22851562 216.05810547 C-103.89331349 216.66407998 -103.89331349 216.66407998 -93.35351562 211.80810547 C-89.37920145 206.66487536 -88.88602719 201.46016118 -88.91601562 195.12060547 C-88.89990234 194.44320312 -88.88378906 193.76580078 -88.8671875 193.06787109 C-88.86133239 186.9609941 -90.25394738 182.33185072 -94.29101562 177.68310547 C-101.14136528 171.93765092 -103.73573701 175.05810547 -116.22851562 175.05810547 Z M-21.22851562 175.05810547 C-22.29522935 183.74625972 -22.54512276 192.44337057 -22.79101562 201.18310547 C-22.83431718 202.63103169 -22.87793468 204.07894849 -22.921875 205.52685547 C-23.02772668 209.03717125 -23.12931802 212.5475946 -23.22851562 216.05810547 C-21.24851563 216.05810547 -19.26851562 216.05810547 -17.22851562 216.05810547 C-16.16571058 209.76165544 -15.90739667 203.49543939 -15.66601562 197.12060547 C-15.60124023 195.52249023 -15.60124023 195.52249023 -15.53515625 193.89208984 C-15.42977074 191.28087104 -15.32764474 188.66956801 -15.22851562 186.05810547 C-15.0822876 186.62843506 -14.93605957 187.19876465 -14.78540039 187.78637695 C-14.12417447 190.35705336 -13.45766792 192.9263312 -12.79101562 195.49560547 C-12.56091797 196.3934375 -12.33082031 197.29126953 -12.09375 198.21630859 C-11.87138672 199.0703125 -11.64902344 199.92431641 -11.41992188 200.80419922 C-11.21568604 201.5949585 -11.0114502 202.38571777 -10.80102539 203.20043945 C-10.38818609 205.05426426 -10.38818609 205.05426426 -9.22851562 206.05810547 C-7.56234447 206.09874379 -5.89463468 206.10082647 -4.22851562 206.05810547 C-1.7591389 199.82586897 0.09009267 193.54517701 1.77148438 187.05810547 C1.79654053 187.6168335 1.82159668 188.17556152 1.84741211 188.7512207 C1.96491542 191.33282974 2.08692817 193.91420783 2.20898438 196.49560547 C2.24830078 197.37410156 2.28761719 198.25259766 2.328125 199.15771484 C2.60011106 204.82757809 3.08926083 210.422595 3.77148438 216.05810547 C5.75148437 216.05810547 7.73148438 216.05810547 9.77148438 216.05810547 C10.95737421 211.55950043 10.72651204 207.28680979 10.43164062 202.69482422 C10.38583359 201.90284134 10.34002655 201.11085846 10.29283142 200.2948761 C10.14588475 197.77805522 9.99006378 195.26187484 9.83398438 192.74560547 C9.73248582 191.03405164 9.63156792 189.32246328 9.53125 187.61083984 C9.28471829 183.42616514 9.03022907 179.24204206 8.77148438 175.05810547 C6.13148438 175.05810547 3.49148437 175.05810547 0.77148438 175.05810547 C-1.53851563 181.98810547 -3.84851563 188.91810547 -6.22851562 196.05810547 C-8.41702142 190.22209002 -10.44892834 184.42202114 -12.36132812 178.49951172 C-13.00207402 176.14133245 -13.00207402 176.14133245 -14.22851562 175.05810547 C-16.56148996 175.01717609 -18.89556787 175.01568824 -21.22851562 175.05810547 Z M81.77148438 178.05810547 C81.77148438 180.69810547 81.77148438 183.33810547 81.77148438 186.05810547 C80.12148438 186.05810547 78.47148437 186.05810547 76.77148438 186.05810547 C76.77148438 187.70810547 76.77148438 189.35810547 76.77148438 191.05810547 C78.42148437 191.05810547 80.07148438 191.05810547 81.77148438 191.05810547 C81.73667969 192.77707031 81.73667969 192.77707031 81.70117188 194.53076172 C81.68239959 196.06070307 81.66420096 197.59065153 81.64648438 199.12060547 C81.62972656 199.87277344 81.61296875 200.62494141 81.59570312 201.39990234 C81.55289676 206.34403792 82.04661748 210.40455834 83.77148438 215.05810547 C87.92311982 217.98867167 92.03154517 216.861485 96.77148438 216.05810547 C98.10453135 213.1662376 98.10453135 213.1662376 96.83398438 210.87060547 C96.48335938 210.27248047 96.13273437 209.67435547 95.77148438 209.05810547 C93.79148437 209.05810547 91.81148438 209.05810547 89.77148438 209.05810547 C89.44148438 203.11810547 89.11148437 197.17810547 88.77148438 191.05810547 C91.08148438 191.05810547 93.39148438 191.05810547 95.77148438 191.05810547 C96.10148437 189.40810547 96.43148438 187.75810547 96.77148438 186.05810547 C94.13148438 186.05810547 91.49148438 186.05810547 88.77148438 186.05810547 C88.77148438 183.08810547 88.77148438 180.11810547 88.77148438 177.05810547 C84.87689363 176.84728696 84.87689363 176.84728696 81.77148438 178.05810547 Z M-78.22851562 188.05810547 C-82.85830707 193.90626309 -83.89151776 198.80124578 -83.22851562 206.05810547 C-82.31993707 209.79257797 -80.98695495 212.4260727 -77.97851562 214.93310547 C-71.79388998 217.4631796 -67.34988681 217.18184649 -61.22851562 215.05810547 C-60.2174047 212.00897319 -60.2174047 212.00897319 -61.22851562 209.05810547 C-62.00195312 209.30560547 -62.00195312 209.30560547 -62.79101562 209.55810547 C-66.03694301 210.22393673 -68.92395395 210.29843723 -72.22851562 210.05810547 C-75.29967909 208.01066316 -75.28677635 206.82506257 -76.22851562 203.05810547 C-70.61851563 203.05810547 -65.00851563 203.05810547 -59.22851562 203.05810547 C-57.34480611 199.29068644 -59.00231117 194.91882842 -60.22851562 191.05810547 C-62.67179141 187.73253566 -64.22643146 186.40665648 -68.10351562 185.05810547 C-72.23328589 185.05810547 -74.64981745 186.00366763 -78.22851562 188.05810547 Z M-54.22851562 186.05810547 C-55.54846642 188.13384949 -55.54846642 188.13384949 -54.42407227 190.85546875 C-53.99989014 192.01804199 -53.57570801 193.18061523 -53.13867188 194.37841797 C-52.91529648 194.99707733 -52.69192108 195.61573669 -52.46177673 196.25314331 C-51.74526917 198.23245271 -51.01829294 200.20773108 -50.29101562 202.18310547 C-49.80399423 203.52269738 -49.31765723 204.86253832 -48.83203125 206.20263672 C-47.6387934 209.49072185 -46.43613631 212.77527151 -45.22851562 216.05810547 C-42.91851562 216.05810547 -40.60851562 216.05810547 -38.22851562 216.05810547 C-34.92851562 206.48810547 -31.62851563 196.91810547 -28.22851562 187.05810547 C-29.35385667 185.70192048 -29.35385667 185.70192048 -32.29101562 185.99560547 C-33.74507812 186.02654297 -33.74507812 186.02654297 -35.22851562 186.05810547 C-36.06855011 188.80621827 -36.90073713 191.55630128 -37.72851562 194.30810547 C-38.08623047 195.4740625 -38.08623047 195.4740625 -38.45117188 196.66357422 C-38.67675781 197.41767578 -38.90234375 198.17177734 -39.13476562 198.94873047 C-39.34423828 199.63999023 -39.55371094 200.33125 -39.76953125 201.04345703 C-40.37660347 203.36373811 -40.37660347 203.36373811 -40.22851562 207.05810547 C-42.22851562 206.05810547 -42.22851562 206.05810547 -42.89868164 204.21630859 C-43.09131592 203.43191406 -43.2839502 202.64751953 -43.48242188 201.83935547 C-43.69705078 200.98986328 -43.91167969 200.14037109 -44.1328125 199.26513672 C-44.35001953 198.37181641 -44.56722656 197.47849609 -44.79101562 196.55810547 C-45.22685632 194.79695329 -45.66550963 193.03649397 -46.10742188 191.27685547 C-46.29892822 190.49246094 -46.49043457 189.70806641 -46.68774414 188.89990234 C-47.06869692 187.05817029 -47.06869692 187.05817029 -48.22851562 186.05810547 C-50.22809926 186.01729764 -52.22896816 186.01556191 -54.22851562 186.05810547 Z M23.77148438 187.05810547 C19.47779725 191.235747 17.99426521 195.6075163 17.45898438 201.49560547 C17.92425326 206.79967074 19.34065976 210.5477906 23.02148438 214.43310547 C27.13520568 216.86394078 30.51734759 217.62613356 35.22070312 216.44091797 C37.43577752 215.71067366 39.60732859 214.92671221 41.77148438 214.05810547 C41.11148438 212.40810547 40.45148438 210.75810547 39.77148438 209.05810547 C38.99804688 209.30560547 38.99804688 209.30560547 38.20898438 209.55810547 C34.38497592 210.34251746 30.32857011 210.83664834 26.77148438 209.05810547 C26.11148438 207.07810547 25.45148438 205.09810547 24.77148438 203.05810547 C30.38148438 203.05810547 35.99148437 203.05810547 41.77148438 203.05810547 C42.9233731 197.29866183 42.21231199 194.26118656 39.77148438 189.05810547 C35.10377801 184.07921868 29.75918598 184.66302483 23.77148438 187.05810547 Z M52.77148438 188.05810547 C48.25224506 193.25523068 48.16731845 198.26414793 48.37695312 205.01904297 C48.91927085 209.19650032 49.89579186 211.01808767 52.77148438 214.05810547 C56.8611974 216.78458082 60.99054405 217.44095003 65.81445312 216.77685547 C67.94298703 216.29861599 67.94298703 216.29861599 70.77148438 215.05810547 C72.10481771 212.05810547 72.10481771 212.05810547 70.77148438 209.05810547 C69.75054687 209.30560547 69.75054687 209.30560547 68.70898438 209.55810547 C65.23143272 210.15002915 62.29006091 210.44905842 58.77148438 210.05810547 C56.89648438 207.68310547 56.89648438 207.68310547 55.77148438 205.05810547 C55.44148437 204.39810547 55.11148438 203.73810547 54.77148438 203.05810547 C60.71148437 203.05810547 66.65148437 203.05810547 72.77148438 203.05810547 C72.97190033 195.24972725 72.97190033 195.24972725 69.77148438 189.05810547 C64.47726785 183.94036283 58.79962397 184.45884049 52.77148438 188.05810547 Z M-21.22851562 234.05810547 C-21.22851562 237.35810547 -21.22851562 240.65810547 -21.22851562 244.05810547 C-19.90851563 243.72810547 -18.58851563 243.39810547 -17.22851562 243.05810547 C-18.21851563 243.05810547 -19.20851562 243.05810547 -20.22851562 243.05810547 C-20.22851562 240.08810547 -20.22851562 237.11810547 -20.22851562 234.05810547 C-20.55851563 234.05810547 -20.88851562 234.05810547 -21.22851562 234.05810547 Z M-39.22851562 238.05810547 C-38.22851562 240.05810547 -38.22851562 240.05810547 -38.22851562 240.05810547 Z M-63.22851562 242.05810547 C-62.22851562 244.05810547 -62.22851562 244.05810547 -62.22851562 244.05810547 Z M-34.22851562 243.05810547 C-34.22851562 243.38810547 -34.22851562 243.71810547 -34.22851562 244.05810547 C-32.24851563 244.05810547 -30.26851562 244.05810547 -28.22851562 244.05810547 C-28.22851562 243.72810547 -28.22851562 243.39810547 -28.22851562 243.05810547 C-30.20851562 243.05810547 -32.18851563 243.05810547 -34.22851562 243.05810547 Z M-9.22851562 243.05810547 C-9.22851562 243.38810547 -9.22851562 243.71810547 -9.22851562 244.05810547 C-7.24851563 244.05810547 -5.26851562 244.05810547 -3.22851562 244.05810547 C-3.22851562 243.72810547 -3.22851562 243.39810547 -3.22851562 243.05810547 C-5.20851562 243.05810547 -7.18851563 243.05810547 -9.22851562 243.05810547 Z M27.77148438 243.05810547 C27.77148438 243.38810547 27.77148438 243.71810547 27.77148438 244.05810547 C29.75148437 244.05810547 31.73148438 244.05810547 33.77148438 244.05810547 C33.77148438 243.72810547 33.77148438 243.39810547 33.77148438 243.05810547 C31.79148438 243.05810547 29.81148437 243.05810547 27.77148438 243.05810547 Z M37.77148438 243.05810547 C37.77148438 243.38810547 37.77148438 243.71810547 37.77148438 244.05810547 C39.75148437 244.05810547 41.73148438 244.05810547 43.77148438 244.05810547 C43.77148438 243.72810547 43.77148438 243.39810547 43.77148438 243.05810547 C41.79148438 243.05810547 39.81148437 243.05810547 37.77148438 243.05810547 Z " fill="#000000" transform="translate(184.228515625,5.94189453125)"/>
<path d="M0 0 C7 0 7 0 9.375 1.3125 C12.89003224 4.96272578 12.18351609 9.6926634 12.1875 14.4375 C12.19974609 15.20126953 12.21199219 15.96503906 12.22460938 16.75195312 C12.24313388 23.84684027 12.24313388 23.84684027 10 27 C6.45856627 29.52959552 4.78182389 29 0 29 C0 19.43 0 9.86 0 0 Z " fill="#010101" transform="translate(75,187)"/>
<path d="M0 0 C2.5 0.25 2.5 0.25 4.5 2.25 C4.625 5.375 4.625 5.375 4.5 8.25 C1.2 8.25 -2.1 8.25 -5.5 8.25 C-4.48237885 0.44823789 -4.48237885 0.44823789 0 0 Z " fill="#030303" transform="translate(214.5,195.75)"/>
<path d="M0 0 C2 3 2 3 2 7 C-1.3 7 -4.6 7 -8 7 C-9 5 -9 5 -8.1875 2.4375 C-6.16822138 -1.70733507 -4.08143209 -1.22442963 0 0 Z " fill="#010101" transform="translate(248,197)"/>
<path d="M0 0 C3.125 0.375 3.125 0.375 6 1 C6.33 3.31 6.66 5.62 7 8 C3.7 8 0.4 8 -3 8 C-2.25 2.25 -2.25 2.25 0 0 Z " fill="#020202" transform="translate(111,196)"/>
</svg>
